<svg id="Group_361" data-name="Group 361" xmlns="http://www.w3.org/2000/svg" width="707.058" height="250.856" viewBox="0 0 707.058 250.856">
  <path id="Path_294" data-name="Path 294" d="M1.2,136.71c-1.205,2.8.883-.547,3.238-3.28Z" transform="translate(-0.849 24.203)" fill="#bcbcbc"/>
  <path id="Path_295" data-name="Path 295" d="M3.41,134.093l2.228-2.313a16.242,16.242,0,0,0-2.228,2.313Z" transform="translate(0.18 24.103)" fill="#bcbcbc"/>
  <path id="Path_296" data-name="Path 296" d="M22.306,118.07a98.109,98.109,0,0,1-7.33,7.919,31.045,31.045,0,0,0-5.606,6.784c2.593-2.369,5.859-5.41,8.409-8.255S22.152,119.163,22.306,118.07Z" transform="translate(2.573 20.461)" fill="#bcbcbc"/>
  <path id="Path_297" data-name="Path 297" d="M12.18,124.168l-.14,1.079,3.532-5.088Z" transform="translate(4.837 21.727)" fill="#bcbcbc"/>
  <path id="Path_298" data-name="Path 298" d="M9.65,127.175l.785-.448,6.209-7.316Z" transform="translate(3.877 21.347)" fill="#bcbcbc"/>
  <path id="Path_299" data-name="Path 299" d="M35.5,106.89c-1.7,1.584-3.42,3.14-5.088,4.751-5.354,3.84,2.341-3.84-1.247-1.289-6.335,6.013-.911,3.434-9,10.708,1.219,0,12.614-12.025,12.264-9.811C39.554,105.643,32.237,110.408,35.5,106.89Z" transform="translate(6.91 18.569)" fill="#bcbcbc"/>
  <path id="Path_300" data-name="Path 300" d="M310,16.722l1,.168C310.6,16.736,310.21,16.61,310,16.722Z" transform="translate(105.644 6.691)" fill="#bcbcbc"/>
  <path id="Path_301" data-name="Path 301" d="M392.53,23.18l4.667,1.051a12.953,12.953,0,0,0-1.808-.7C394.436,23.39,393.483,23.292,392.53,23.18Z" transform="translate(133.96 9.302)" fill="#bcbcbc"/>
  <path id="Path_302" data-name="Path 302" d="M259.583,18.31c-1.668-.084-3.2-.112-4.583-.14a23.393,23.393,0,0,0,4.583.14Z" transform="translate(86.627 7.29)" fill="#bcbcbc"/>
  <path id="Path_303" data-name="Path 303" d="M318.249,188.4a1.079,1.079,0,0,0,.5-.5h-.21l-1.163.631Z" transform="translate(108.177 29.514)" fill="#bcbcbc"/>
  <path id="Path_304" data-name="Path 304" d="M481.73,51.39c1.64.925,3.252,1.822,4.737,2.565A44.854,44.854,0,0,0,481.73,51.39Z" transform="translate(162.271 9.386)" fill="#bcbcbc"/>
  <path id="Path_305" data-name="Path 305" d="M228.64,20.226l1.752-.126H228.22l.336.1Z" transform="translate(77.452 8.065)" fill="#bcbcbc"/>
  <path id="Path_306" data-name="Path 306" d="M365.76,18.41c1.556.266,2.971.491,4.2.617C368.521,18.76,367.12,18.578,365.76,18.41Z" transform="translate(124.76 7.386)" fill="#bcbcbc"/>
  <path id="Path_307" data-name="Path 307" d="M93.69,64.953a29.431,29.431,0,0,0,4.373-2.523A15.908,15.908,0,0,0,93.69,64.953Z" transform="translate(36.433 11.406)" fill="#bcbcbc"/>
  <path id="Path_308" data-name="Path 308" d="M119.95,51.29l-.21.1C120.02,51.444,120.1,51.36,119.95,51.29Z" transform="translate(40.112 9.461)" fill="#bcbcbc"/>
  <path id="Path_309" data-name="Path 309" d="M137.39,44.44l-.42.2C137.292,44.636,137.461,44.608,137.39,44.44Z" transform="translate(46.046 8.194)" fill="#bcbcbc"/>
  <path id="Path_310" data-name="Path 310" d="M96.81,64.756c3.224-1.191,4.891-.112,7.975-3.7l-.9.168c2.551-.8,5.69-3.168,8.409-4.583a6.027,6.027,0,0,0-1.177.084c-1.4.673-3.224,1.528-6.069,2.8C101.547,60.859,99.753,62.653,96.81,64.756Z" transform="translate(32.097 10.107)" fill="#bcbcbc"/>
  <path id="Path_311" data-name="Path 311" d="M310.109,17.007C309.73,16.656,306.941,16.74,310.109,17.007Z" transform="translate(105.154 6.729)" fill="#bcbcbc"/>
  <path id="Path_312" data-name="Path 312" d="M284.2,17.4l3.518.07a28.816,28.816,0,0,0-3.518-.07Z" transform="translate(96.701 6.97)" fill="#bcbcbc"/>
  <path id="Path_313" data-name="Path 313" d="M188.48,24.855h.645C189.279,24.588,188.774,24.715,188.48,24.855Z" transform="translate(63.789 9.912)" fill="#bcbcbc"/>
  <path id="Path_314" data-name="Path 314" d="M289.928,17.47H286.69a22.214,22.214,0,0,0,3.238,0Z" transform="translate(97.564 7.009)" fill="#bcbcbc"/>
  <path id="Path_315" data-name="Path 315" d="M217.14,21.124h.561A2.621,2.621,0,0,0,217.14,21.124Z" transform="translate(73.664 8.47)" fill="#bcbcbc"/>
  <path id="Path_316" data-name="Path 316" d="M219.307,64.007a48.3,48.3,0,0,1-6,3.154c-4.2,3.994,9.937-6.1,3.532-.869,2.13-1.317,3.728-2.495,5.2-3.6l-3.644.883C214.429,66.558,221.409,62.171,219.307,64.007Z" transform="translate(71.921 11.317)" fill="#bcbcbc"/>
  <path id="Path_317" data-name="Path 317" d="M296.38,191.841l1.135-.14c-.869-.364-.21-.645-4.569,0-3.532,1.5,2.453,1.57-3.826,3.686A45.2,45.2,0,0,1,294,194.5C291.208,194.265,293.675,193.06,296.38,191.841Z" transform="translate(98.284 30.885)" fill="#bcbcbc"/>
  <path id="Path_318" data-name="Path 318" d="M292.6,193.676h.2a7,7,0,0,0,1,0c.939-.182,1.85-.336,2.593-.406A20.941,20.941,0,0,0,292.6,193.676Z" transform="translate(99.587 31.67)" fill="#bcbcbc"/>
  <path id="Path_319" data-name="Path 319" d="M166.313,99.73,164,101.51a9.433,9.433,0,0,0,2.313-1.78Z" transform="translate(55.335 18.279)" fill="#bcbcbc"/>
  <path id="Path_320" data-name="Path 320" d="M472.394,57.923a35.315,35.315,0,0,0-3.294-1.3A24.409,24.409,0,0,0,472.394,57.923Z" transform="translate(157.199 10.395)" fill="#bcbcbc"/>
  <path id="Path_321" data-name="Path 321" d="M338.67,182.721c1.009-.154,2.032-.35,3.139-.589l1.948-.533Z" transform="translate(115.412 26.984)" fill="#bcbcbc"/>
  <path id="Path_322" data-name="Path 322" d="M192.666,211.617c2.341-1.247-1.78,0-6.363-.827-1.4.2-2.8.406-4.3.5C185.91,211.757,189.554,211.533,192.666,211.617Z" transform="translate(61.404 38.706)" fill="#bcbcbc"/>
  <path id="Path_323" data-name="Path 323" d="M219.572,62.676a.182.182,0,0,1,0-.126l-.252.2Z" transform="translate(74.42 11.535)" fill="#bcbcbc"/>
  <path id="Path_324" data-name="Path 324" d="M102.513,185.264l-1.093-2.214A21.275,21.275,0,0,0,102.513,185.264Z" transform="translate(39.537 27.566)" fill="#bcbcbc"/>
  <path id="Path_325" data-name="Path 325" d="M310.09,191.216l15.655-3.476-4.639.729C319.074,189.59,312.08,189.954,310.09,191.216Z" transform="translate(105.316 29.45)" fill="#bcbcbc"/>
  <path id="Path_326" data-name="Path 326" d="M310.084,248.657l1.462.521c7.59-1.564,15.878-2.132,23.7-3.163,3.916-.462,7.738-.936,11.305-1.516a73.35,73.35,0,0,0,9.8-2.369c9.495-.213,12.4-1.279,15.114-2.369s5.217-2.038,13.866-2.488l-.63-.225c27.706-4.81,56.016-10.484,83.708-16.384s54.835-11.858,80.154-18.09v.486q30.844-6.516,61.259-13.256c10.085-2.251,20.384-4.336,30.844-7.38s20.893-7.108,30.241-13.375a77.149,77.149,0,0,0,6.705-5.023,65.147,65.147,0,0,0,5.981-5.8,51.078,51.078,0,0,0,5.1-6.587,44.058,44.058,0,0,0,3.9-7.357,36.417,36.417,0,0,0,2.333-7.937,22.03,22.03,0,0,0,.577-4.063c.08-1.362.215-2.737.2-4.1a47.043,47.043,0,0,0-3.259-15.791,64.171,64.171,0,0,0-7.778-13.872,97.121,97.121,0,0,0-10.433-11.846A136.571,136.571,0,0,0,662.162,76.48c-1.059-.794-2.172-1.54-3.245-2.31s-2.172-1.528-3.3-2.239-2.24-1.469-3.366-2.156L648.859,67.8c-7.027-3.554-3.594-.32-9.709-3.21-2.575-1.35-8.475-4.288-8.194-4.81,5.23,2.286,2.682.4,4.533,1.078-2.105-1.054-4.358-2.227-6.705-3.435s-4.774-2.286-7.175-3.412-4.788-2.2-7.094-3.151a67.195,67.195,0,0,0-6.638-2.251l6.249,3.246q-5.479-1.793-10.728-4.075c1.341.107-2.347-2.227.147-1.457-2.186-.64-4.023-1.031-5.673-1.469s-2.91-.829-4.023-1.185a44.5,44.5,0,0,1-5.217-2.061,62.69,62.69,0,0,0-12.794-4.265c-1.717.3-7.282-.3-13.907-1.315-3.326-.5-6.96-.877-10.5-1.362l-5.244-.687-4.908-.486-6.29-1.6c8.489,1.6.107-1.185,10.635.888-4.345-1.054-8.61-1.789-12.82-2.5s-8.382-1.185-12.539-1.943c1.542.652,1.033,1.09-2.36.734-5.109-.912-5.364-1.753-11.305-2.63l5.9.3c-3.822-1.1-7.322-.841-10.983-1.185-1.086-.794-9.91-1.907-8.247-2.476-4.023,0-6.705-.13-9.535-.344s-5.646-.474-9.964-.545c8.851,1.469-2.387.663-1.448,1.315,3.366.154,6.705.426,10.071.64-14.108-1.765,4.613.308,3.7-.912,6.6,1.185-9.387,1.007,1.8,1.872-13.41-.7-16.093-1.433-29.838-1.469,8.234.332-1.636.616,2.682,1.268-10.42-.64-2.561-.569-5.713-1.5-5.673-.32-7.724-1.185-13.008-.557-9.173-.829,1.448-.782-3.178-1.481,3.473-.675,25.547,2.5,23.254-.118,2.414.178,5.109.13,8.046.13a84.137,84.137,0,0,1,9.669.379c-3.017-.462-6.705-1.054-10.514-1.516a86.725,86.725,0,0,0-11.667-.806l-.5,1.374c-5.7-.332-6.947.545-11.023.166,2.2-.284-1.676-1.09-6.263-1.185,1.341.272,3.111.32,2.6.545-8.475-.344-9.709.533-19.794.355,8.288.734,9.977,1.185,17.688,2.263-2.146.877-5.471-.166-10.044-.261.7-.095,1.649-.083.322-.344l-4.895.261c-10.326-.888,1.341-1.362-7.121-2.227-5.874-1.042-8.113.166-12.619-.462l.872.284-2.253-.154a.067.067,0,0,1,.067.071c-5.5,0-11.4-.249-12.981.45-.577-.367-4.814,0-6.611.2-3.084.237-10.42,1-14.98-.19h.335c-6.853-.2-12.2-.509-10.728-.912l-11.077-.2,1.167-.971c-10.1.486-9.079,1-15.958,2.18q-6.629-.149-13.25.308c-4.653.344-8.985.794-11.345,1.1q-2.018.041-4.023.272c1.341,0,2.816,0,4.224.095-7.845.486-6.853.96-12.069,1.339,1.073,0,1.234,0-1.676.107l-2.964.178a11.316,11.316,0,0,1,2.561-.249l-.966-.249c-6.383-.415-9.548,1.422-16.267,1.789.63-.118,1.69-.3,2.374-.367-3.782.166-9.387-.557-10.809.438a14.186,14.186,0,0,0-3.447.675l-2.776.237c1.14-.107,2.012-.178,2.749-.225a13.013,13.013,0,0,1-3.487.9l-9.6,1.185a49.643,49.643,0,0,0-6.209,1.125l-1.7-.13c-3.46.616-3.54.391-3.151.213a84.361,84.361,0,0,0-15.489,2.523c-2.36.569-4.721,1.185-7.322,1.765s-5.485,1.031-8.757,1.54c-2.253,1.256,3.111.213,3.634.521-1.877.9-9,3.21-12.525,4.431q-3.1.3-6.155.877l-7.51,1.4c-4.828.865-8.65,1.4-7.5.379-10.339,3.187,3.5-.272-1.489,1.813l-1.194.332a37.9,37.9,0,0,1,8.77-1.433c.523.237-1.489,1.042-4.023,1.872s-5.364,1.836-6.839,2.168l1.556-1.587c-9.307,3.4-6.705,4.146-12.15,7.108-7.537,2.275-3.688-.107-5.619-.391l-7.523,2.95-.335-.7c-4.948,2.049-5.726,3.246-12.767,5.686,2.32-1.315-.349-.45-2.789.308a29.4,29.4,0,0,1-2.843.77c-.443,0-.215-.3,1.341-1.185-3.916,1.386-4.265,3.222-6.705,3.151-2.213,1.872,3.581-1.185,5.606-1.73,2.105.379-8.046,4.134-12.324,6.385-.684-.355,2.682-1.99-2.87,0a19.437,19.437,0,0,1-7.2,3.755c.2.332-1.247,1.078-3.138,1.907l-2.977,1.279c-.992.45-1.918.888-2.682,1.256.831-.391,1.77-.817,2.682-1.185s1.837-.663,2.575-.877c1.475-.438,2.293-.486,1.341.32-1.194.758-2.347,1.41-3.9,2.275s-3.366,1.943-6.263,3.459l4.157-1.765a23.09,23.09,0,0,1-6.839,3.661c-1.234.474-2.535.96-4.023,1.564a34.568,34.568,0,0,0-4.493,2.44c1.261-1,2.347-1.741,3.366-2.476a38.708,38.708,0,0,0,3.165-2.334c-3.084,1.919-8.663,5.923-13.41,8.98-2.119.758-4.224,1.516-6.276,2.369-.335.888-6.222,3.779-5.726,4.407-7.108,3.8,4.962-4.146,5.3-5a42.054,42.054,0,0,0-7.523,5,37.883,37.883,0,0,1-7.456,4.478l2.2-2.369c-2.682,1.753-7.8,5.663-8.395,5.6.174.2,1.462-.782,3.125-1.9-.3,1.185-3.205,3.435-5.766,5.5s-4.653,4.051-3.607,4.312l3.634-2.488c-5.243,4.206-8.408,7.759-12.928,10.449-3.5,2.049,1.341-2.547,3.071-4.194a12.634,12.634,0,0,0-4.144,4.146,17.923,17.923,0,0,1-4.8,4.739c3.326-2.239,3.138-1.351,1.569.4,1.757-1.291,4.479-3.27,6.544-4.869s3.581-2.7,2.682-2.488l-1.341.806c0-.545,1.851-2.061,2.682-2.914,4.841-3.554,2.763-1.066,4.023-1.54,4.1-2.8,4.023-3.222,3.782-3.554s-.563-.758,3.286-3.27l1.194-.426c3.406-2.748,8.972-6.634,9.387-8.008,4.1-1.279,8.623-5.828,12.794-7.629,1.046.687-2.28,2.725-6.37,5.035-2.038,1.185-4.265,2.369-6.209,3.554a22.613,22.613,0,0,0-4.4,3.353c4.291-2.286-1.569,2.369-2.883,3.909l5.954-4.585c1.985-1.552,4.023-2.95,6.115-4.431,1.234-.391,5.726-1.8,7.564-3.933l-1.059.592a28.4,28.4,0,0,0,4.023-3.151,13.414,13.414,0,0,1,3.8-2.369c.831-.237-.335.865-.6,1.185,4.332-2.215,3.192-2.369,5.874-4.182,4.318-2.227-1.556,1.967,2.105.178,4.4-3.424,7.966-3.969,12.217-6.29-1.274,0,2.682-2.737,5.954-4.739s5.471-3.554.389-1.741c3.393-1.943,6.705-3.933,10.192-5.923,1.864-.438.2.723-1.341,2.1s-3.232,2.737-1.489,2.511l-8.435,4c1.126.355,5.364-1.99,10.192-4.561a80.75,80.75,0,0,1,7.376-3.554,27.871,27.871,0,0,1,6.035-1.978c4.586-1.955,3.379-1.659,12.552-4.466l-2.159-.675c4.734-1.54,6.558-1.422,6.88-1.268q3.75-1.584,7.671-2.819a13.44,13.44,0,0,1-3.044,1.6c3.835-.533,4.707-1.185,5.753-1.99a46.478,46.478,0,0,1,7.537-3c-.818.426-1.609.924-2.414,1.4,1.717-.77,3.876-1.587,4.023-1.907,1.22-.391,2.36-.794,3.433-1.185a26.782,26.782,0,0,0-7.523.936c5.552-1.576,10.487-3.033,15.207-4.431a135.044,135.044,0,0,1,14.3-3.163c-.215.5-4.023,2.1-2.789,1.812a44.558,44.558,0,0,0,6.571-2.132c1.757-.675,2.843-1.279,2.535-1.516,1.073-.308,1.891-.533,2.682-.723a12.319,12.319,0,0,0,4.546-.308,15.966,15.966,0,0,0,3.111-.462c1.234-1.576,10.728-2.95,12.566-3.9-2.226.355-4.895.936-7.6,1.564,3.674-1.564,6.96-3.151,10.125-3.21-7.054,2.239,8.046-.5-2.8,2.121,4.023-.142,4.935-.557,5.914-1.114s1.971-1.185,6.115-1.765l5.364-.426c-.63.924-8.435,1.99-7.148,2.061l3.634-.794c-1.757.663-6.1,1.481-11.023,2.559-2.454.569-5.042,1.185-7.537,1.824a64.693,64.693,0,0,0-6.906,2.038c2.789-.652,5.646-1.114,8.462-1.67s5.646-1.09,8.489-1.552c2.682-.616,5.364-1.185,8.18-1.813,1.341-.3,2.8-.6,4.238-.865l4.332-.758,8.77-1.5,8.851-1.256,4.385-.628,4.332-.545q4.3-.545,8.408-1.185c5.471-.687,10.608-1.457,15.207-2.286l-.791.071a1.214,1.214,0,0,0,.684-.592l.858.142,3.621-.877q4.235.3,8.489.2c3.339,0,6.987,0,10.339.13-4.224-.272-4.224-.272-4.68-.853.778-.865,1.341-1.256,7.657-1.291.107.58-3.742.758.885,1-2.4-.19-.308-.687,2.414-.865,3.54.249,9.387.095,9.495.675a21.058,21.058,0,0,1-4.023,0c-1.623.213,6.625.261,1.81.924,2.119-.154,4.224-.261,6.343-.355,3.715.4-2.441.817-.952,1.09,10.514-.663,15.891-2.026,25.48-2.488-.443.308-.55,1.6-.443,1.185a76.491,76.491,0,0,0,11.694-.521q6.215-.676,12.485-.758c-1.247.367-4.372.166-6.92.308,25.614.9,46.655,1.789,70.512,4.478l6.343-.924c2.065.415,4.117.877,6.169,1.327l17.863,1.86,16.642,1.659,4.023.391,4.023.474,8.207.924c2.776.284,5.539.723,8.368,1.1s5.726.746,8.663,1.185c7.3,1.279,4.144,1.718,7.47,2.725,4.023.746,7.188,1.4,10.031,1.9s5.364.853,7.8,1.185,4.868.806,7.617,1.315q4.841.844,9.562,2.132c-2.173-.213-5.981-.13.3,1.777,1.341,0,2.293-.355,6.2,1.042l-2.173-.213a37.557,37.557,0,0,0,5.766,2c2.253.734,5,1.576,8.65,2.95,12.968,4.585,25.48,8.743,36.208,12.747,10.728,5.58-1.945.652,0,1.943-7.3-4.253-5.364-2.452-7.268-2.879,4.184,1.694,9.173,3.945,10.661,5.793,2.682,1.5,4.64,2.642,6.625,3.684.992.533,1.985,1.042,3.1,1.576s2.36,1.078,3.688,1.777a18.006,18.006,0,0,1-3.071-1.9c-.51-.45-.308-.616,1.086-.071,2.105,1.4,5.753,3.8,8.663,6.006s5.029,4.206,4.278,4.442a86.686,86.686,0,0,1,14.966,14.95,44.8,44.8,0,0,1,8.851,17.9,29.2,29.2,0,0,1-2,18.706,43.155,43.155,0,0,1-13.142,15.554c-1.73,1.67-.952,1.185,0,.486s2.119-1.623,1.261-.616a17.7,17.7,0,0,1-4.962,3.755,28.621,28.621,0,0,0-4.506,2.7c.6-.557,1.153-1.185,1.7-1.73a151.184,151.184,0,0,1-24.689,11.61c1.207-1.09-7.429,1.35-.282-1.031-4.251,1.327-10.514-.6-13.692.817l5.82,1.813c-.134.355-6.383,1.611-5.713,1.659a100.178,100.178,0,0,0-11.734,1.256c-1.542-.462,5.364-1.8,9.012-2.606.215-1.386-12.74,1.967-7.684-.379-7.912,1.978,1.341.391-3.312,1.919l-7.041,1.268,5.5-.77c-5.7,1.67-7.429,3.068-15.368,4.087l-7.7,3.009c-1.086-.817-5.914,1.114-10.112,1.8l2.4-1.185a85.6,85.6,0,0,1-11.2,1.955c2.843-1.564,5.029-.9,6.129-2.014l-6.129,1.042c.188.557-3.527,1.848.9,1.185-5.364,2.286-8.127,3.838-22.194,6.859-6.625.45,6.585-2.369,3.674-2.725-14.752,2.819-17.112,6.444-25.681,8.221-10.983,2.014-10.1,2.76-21.108,5.272,3.312-1.433-7.912,1.007-10.112.829l4.157-1.635c-3.286.936-6.585,1.4-5.726.7.872.746-14.068,4-21.537,6.1l1.542.462c-5.874,1.564-13.96,3.85-20.317,5.011-9.307,2.263-6.973,2.511-13.987,4.845-4.184.154-4.023-.746-2.856-1.848,2.615-.142,6.8-1.185,11-1.919,11.667-3.21,20.411-6.835,32.319-9.074,4.613-2.962-7.9,1.978-13.813,2.594a2.473,2.473,0,0,1,.966-.391c-.51.107-.966.2-1.448.261,4.171-1.185,10.983-2.962,11.868-4.158-7.027,1.753-4.613,2.962-13.638,4.123-6.37,1.943-12.069,1.635-16.093,2.369-4.144,1.623-3.929,3.151-14.751,5.106l4.412-2.014c-12.069,2.5-5.27,2.737-16.508,4.964,4.023-.663-3.554,1.777,4.023.308a120.348,120.348,0,0,1-17.89,3.945c-1.556.462-.255.415-.456.817,6.947-.616,10.514-2.819,16.334-2.9l4.4-2.073c6.383-.912,7.255-.154,3.527,1.09a29.442,29.442,0,0,1,4.613-.971c1.529,1.445-7.7.983-9.495,2.855l4.412-1.042c1.1.332-1.421,1.114-4.948,1.955s-8.046,1.647-10.943,2.18c-6.611.817-12.619,1.718-13.25,1.019,2.883-.663,5.767-1.291,8.636-2-4.667.284-11.05,2.464-16.093,3.4a6.982,6.982,0,0,0-1.475,0c.282,0,.443,0,.456.142a16.535,16.535,0,0,1-2.937.2c-4.466.758-10.93,2.369-15.14,2.808l.671.616.469-.5c4.1-.663,9.749-1.185,6.772-.13-9.146,2.061-11.292,1.066-13.625.77,1.9-1.4,9.012-1.516,13.625-2.677-1.529-.3-3.876.071-7.054.64-1.6.272-3.379.616-5.364.912s-4.224.545-6.705.734a26.961,26.961,0,0,1,7.108-1.682c2.548-.415,4.895-.794,5.82-1.5-7.7,1.185-9.548,2.2-17.688,3.151.925-.7,8.784-1.955,8.127-2.571l-5.243.45c12.7-2-2.521-1.185,7.322-2.926-4.761.225-6.33,1.955-13.115,2.215,1.945.237,7.443.367,1.167,1.8-2.427.225-4.841.533-7.282.711-1.556-.095.268-.652,1.877-1.185s3.017-1.066.63-.948c-2.481.5-4.975.936-7.47,1.41.322.308,4.023,0,1.784.806-4.439.19-6.933,2.3-12.069,3.495a44.418,44.418,0,0,1-8.918.438q-8.288,1.717-16.75,2.63c-5.78.675-11.466,1.469-16.254,2.121,6.531-1.019-.349-1.185-4.291-1.552,7.523-.509,7.483-1.635,6.92-2.369-4.56.332-7.483,1.623-5.15,1.9-7.684-.107-5.243,1.054-12.069.569-4.372-.332,2.132-1.185.617-1.54-8.247.059-2.2,1.386-11.184,1.244.483-.154,1.341-.213.59-.4a52.674,52.674,0,0,0-6.973.213,16.144,16.144,0,0,0-4.13.64c-5.109-1.587-14.537-.19-13.41-1.576-11.681-.3,1.69.924-.63,1.256-4.828.355-13.652-.758-16.388-1.185q4.171-.024,8.328.332l-2.374-1.185a55.57,55.57,0,0,0-7.778-.462,27.9,27.9,0,0,0-4.023.272c-2.293.3-4.546.58-11.466-.592,7.268.261,2.508-.486,6.155-.794-2.186,0-13.035-1.433-6.558,0a60.578,60.578,0,0,1-6.786-1.185l-5.525-1.114-6.973-.521q-2.732-.267-5.485-.272a62.36,62.36,0,0,1-14.752-5.3,58.6,58.6,0,0,1-9.87-3.874,49.431,49.431,0,0,1-4.412-2.476c-.724-.427-1.341-.924-2.025-1.386a17.235,17.235,0,0,1-1.931-1.457l-1.757-1.291-1.649-1.647a14.908,14.908,0,0,1-1.542-1.718,18.387,18.387,0,0,1-1.341-1.777,29.9,29.9,0,0,1-4.023-8.056,3.9,3.9,0,0,0,.174.888,8.864,8.864,0,0,1-.335-1.481c-.094-.415-.161-.758-.228-1.031a3.986,3.986,0,0,0-.308-.912c-.161-.19-.308.344-.362.865s-.2,1.066-.389.829a3,3,0,0,1-.389-1.031,16.469,16.469,0,0,1-.308-2.808c.362.344.577.118.7-.438a13.81,13.81,0,0,0,.456-2.5c.188-1.031.456-2.215.751-3.317a16.128,16.128,0,0,1,1.22-2.9,71.007,71.007,0,0,1,9.307-15.827,78.532,78.532,0,0,1,13.41-13.635c.107.261-.335,1.066-2.253,2.9l5.86-5,5.458-4.739c3.514-3.175,7.054-6.136,10.836-9.24l-.215.379c12.713-9.335,23.2-18.812,36.208-28.609-.979.877-.939,1.422-1.663,2.144,3.473-2.263,7.952-5.224,12.069-8.162,2.025-1.481,4.023-2.891,5.78-4.194a42.115,42.115,0,0,0,4.224-3.554c8.864-4.4,5.109-3.9,16.589-9.584.751-.2-.939.829-1.636,1.3,2.776-1.469,5.083-2.808,7.376-4.182l7.443-4.182c2.883-1.907,5.19-3.554,7.228-5.011l5.82-4.016A101.945,101.945,0,0,1,291.9,67.82c.831.521-1.341,1.741-3.674,3.009s-4.747,2.642-4.533,3.27a42.209,42.209,0,0,1,9.2-5.082c-2.025,1.777-.3.616-1.6,1.978a37.281,37.281,0,0,0,6.906-4.3l3.138-2.369a7.96,7.96,0,0,1,1.341-.948c0-.367-1.167,0-4.023,1.516a19.084,19.084,0,0,1,3.54-2.3c1.6-.841,3.54-1.753,5.606-2.7,4.13-1.884,8.717-4.016,12.257-5.793-2.414.971-9.857,4.253-7.537,2.239a83.8,83.8,0,0,0,10.728-5.532c2.682-1.67,4.908-3.281,8.18-5.106,2.333-.841,3.178-.936,3.084-.711a12.143,12.143,0,0,1-2.266,1.6c-2.387,1.493-5.646,3.447-4.506,3.554,1.717-.3,5.78-1.078,2.24,1,2.052-.829,3.9-1.694,5.673-2.511s3.473-1.611,5.109-2.429c3.286-1.623,6.437-3.27,10.031-4.893v.379c5.109-2.061,10.286-4.419,15.288-6.658a112.828,112.828,0,0,1,14.5-5.307l-4.814,1.291c1.636-.77,6.947-2.571,9.615-4.17-.094.6,7-1.185,4.345.178,2.025-1.552,7.926-3.791,13.96-5.923s12.2-4.051,14.631-5.568c3.031-.332.952.936.2,1.54-6.812,1.73-9.24,2.061-12.525,3.779,5.592-1.718,9.884-2.369,9.146-1.777a113.118,113.118,0,0,1,11.6-4.407,71.406,71.406,0,0,0,9.656-3.554c2.186-.19,4.278-.426,5.686-.462s2.119.154,1.489.734c8.73-1.931,6.424-2.2,4.372-2.452-1.019-.13-1.971-.249-1.408-.569s2.615-.912,7.671-1.682c9.387-.616-8.7,2.583,4.023.853l-2.307.521q1.5.129,3.017.118a13.388,13.388,0,0,0,2.119-.142,8.2,8.2,0,0,0,2.8-1.042,21.173,21.173,0,0,1,2.9-1.445,23.475,23.475,0,0,1,5.7-1.09c1.529,1.185-7.161,1.587.134,1.8,9.387-1.078,13.6-3.163,23.254-2.606l-1.529.5c1.542,0,3.433,0,5.512.095s4.318.308,6.558.474,4.479.486,6.531.7,3.916.426,5.364.7c.228.284-.63.107-1.784,0,10.916,2.369,4.828,0,13.518,2.784H532.7c-2.186-.687-5.364-1.741-8.851-2.535a50.521,50.521,0,0,0-10.138-1.268c5.994,0-8.972-2.642-5.968-3.329l-1.234.355c-15.328-3.187-36.007-2.5-55.761.249q-8.225,2.156-16.669,3.554a118.964,118.964,0,0,0-17.139,4.241c-.764.96-1.341,1.185-3.084,1.611a95.118,95.118,0,0,0-10.125,2.819c5.726-1.907.295-1.268-3.46-.367a74.612,74.612,0,0,1-7.054,2.926,94.909,94.909,0,0,0-9.749,2.168,56.057,56.057,0,0,0-11.319,4.134c-6.705,1.86,1.341-.971,2.682-1.753-2.977.225-5.083,2.369-7.47,2.713,0,0,0-.19.684-.5-5.016,1.741-8.972,3.258-13.035,4.656s-8.207,2.784-13.317,4.845c-.147,1.682-9.763,4.561-13.974,7,1.207-1.066-5.914,2.014-8.9,3.033L314,46.793c-4.761,3.258-7.617,2.891-14.121,6.539l1.77-.557c-1.18.687-2.91,1.528-4.908,2.464s-4.224,2.014-6.5,3.021c-4.533,2.038-9.2,3.874-11.774,4.845-21.457,13.031-38.086,22.781-54.876,33.1s-33.647,21.217-53.441,38c-2.253,2.476,2.468-1.042.925,1.125-3.916,3.483-4.881,4.206-8.542,7.286,3.554-2.369,2.682-2.369,2.548-1.706l5.364-4.987c.362-.154-.228.4.469.107a71.619,71.619,0,0,1,6.316-5.674c-3.272,3.1-3.366,4.739-8.462,8.4a13.779,13.779,0,0,1,2.012-2.061c-4.023,3.21-3.8,3.743-6.973,5.994-3.742,2.891-2.588,2.369-3.42,2.452l-11.372,9.24a68.448,68.448,0,0,1-7.684,8.162c-2.548,2.369-4.72,4.407-5.552,5.284.107-.888,1.623-2.843,3.433-4.857a50.279,50.279,0,0,0,4.774-5.757c-1.489,1.066-2.95,2.2-4.412,3.341l.429.723c-1.824,1.8-3.621,3.661-5.364,5.58l.148-.415a7.219,7.219,0,0,1-2.119,3.175c-.308.2-.979.675-.483,0q-1.5,2.369-2.856,4.739c1.006-3.139-2.91,3.98-3.312,2.938a38.879,38.879,0,0,0-4.814,10.9l-.577,2.369c-.148.806-.228,1.6-.335,2.369a30.185,30.185,0,0,0-.228,4.5v1.09l.107,1.1.215,2.215c.161,1.481.563,2.962.845,4.549.483,1.54.925,3.2,1.582,4.928a41.933,41.933,0,0,0,2.6,5.509c-.577-1.327.523-.284,2.172,1.528.912.853,1.958,1.9,2.991,2.973s2.253,2.014,3.178,2.962c2.2,2.085,2.682,2.737.872,1.765a64.349,64.349,0,0,0,6.035,3.732,41.326,41.326,0,0,0,11.533,6.776q7.578,2.922,15.462,5.153l-.751.237,3.567.545c1.234.166,2.508.355,3.835.58s2.682.426,4.224.687,3.017.462,4.68.77l-1.341.6c8.046,1.824,6.585-.687,15.489,1.185.08-.865-5.485-2.18-6.209-3.116a26.265,26.265,0,0,0,6.249,1.73c2.387.379,4.264.415,3.192,0,9.039.616,6.222.7,6.96.983h5.364c6.3.723,1.891,1.351-.51,1.587q2.285-.106,4.573,0c1.556,0,3.125.13,4.72.273l9.843.971-2.763.213c2.95.213,5.914.545,8.864.616q5.028-.416,10.085-.332c1.837,0,3.728.071,5.632.142s3.8.059,5.673.13l-5.163,1.185c5.243.521,2.682-.426,4.09-.64,8.288-.663,10.071.083,14.483.663,6.611-.924,13.236-.723,19.646-.687S304.492,249.96,310.084,248.657ZM245.311,29.426h1.234C243.876,30.03,242.374,30.456,245.311,29.426Zm71.733-7.179c-8.636.924-5.927.225-6.611,0,4.278-.083,7.6-.284,10.809-.462s6.276-.249,10.071-.213a4.488,4.488,0,0,1-1.877-.652c3.017,0,6.048.059,7.094.628-1.837.616-7.644.675-12.539.616S315.14,22.034,317.044,22.247ZM161,57.17c.241-.178.523-.379.831-.569h0Zm39.762-13.339a11.9,11.9,0,0,0,2.977-.249A6.181,6.181,0,0,0,200.762,43.831ZM284.081,30.8c2.012.284,6.424-.272,9.642-.687C292.208,30.172,289.472,30.279,284.081,30.8ZM626.343,175.327c2.414-.758,6.839-2.369,2.535-1.67-1.877.912-6.008,1.185-7.563,2.144h-.429q2.741-.116,5.458-.474ZM381.816,232.19c.362-.521,2.105-1.374.818-1.5l.724-.095c-.671,0-1.22-.071-.764-.261a50.365,50.365,0,0,0-5.565.888C376.68,232.842,372.456,233.813,381.816,232.19Z" transform="translate(11.355 -0.005)" fill="#bcbcbc"/>
  <path id="Path_327" data-name="Path 327" d="M353.453,176.64l-2.383.631Z" transform="translate(119.753 24.992)" fill="#bcbcbc"/>
  <path id="Path_328" data-name="Path 328" d="M289.39,195.3a37.6,37.6,0,0,0,5.438-.561,24.077,24.077,0,0,0-5.438.561Z" transform="translate(98.444 32.26)" fill="#bcbcbc"/>
  <path id="Path_329" data-name="Path 329" d="M39.807,99.039l1.92-1.794L37.3,100.161c-6.265,6.209-6.041,7.12-7.008,9.208A96.944,96.944,0,0,1,37.83,102c2.649-2.2,5.606-4.513,9.39-7.807Z" transform="translate(10.974 16.285)" fill="#bcbcbc"/>
  <path id="Path_330" data-name="Path 330" d="M42.26,99.94A24.107,24.107,0,0,0,46.2,97.907l.659-1.247Z" transform="translate(15.781 17.608)" fill="#bcbcbc"/>
  <path id="Path_331" data-name="Path 331" d="M106.726,60.87c-2.495,1.093-5.046,2.116-7.526,3.252-1.023.855.617.252,2.691-.547S106.348,61.543,106.726,60.87Z" transform="translate(38.52 11.069)" fill="#bcbcbc"/>
  <path id="Path_332" data-name="Path 332" d="M79.272,68.3,75.81,71.1c3.644-1.6,8.157-4.345,8.564-5.354C80.029,68.693,83.084,66.1,79.272,68.3Z" transform="translate(29.253 11.873)" fill="#bcbcbc"/>
  <path id="Path_333" data-name="Path 333" d="M118.71,55.515a12.964,12.964,0,0,1,4.681-2.439c1.836-.617,3.588-1.177,4.2-1.976-.939.561-3.21,1.289-5.186,2.13S118.668,54.926,118.71,55.515Z" transform="translate(39.677 9.263)" fill="#bcbcbc"/>
  <path id="Path_334" data-name="Path 334" d="M115.155,49.25a14.016,14.016,0,0,0-4.934,1.71c-1.892.911-3.952,2.2-6.391,3.252a70.546,70.546,0,0,1,6.629-2.8,15.066,15.066,0,0,0,4.7-2.158Z" transform="translate(34.541 8.907)" fill="#bcbcbc"/>
  <path id="Path_335" data-name="Path 335" d="M151.469,40.923c-.154.9-3.5,1.794-7.2,3.013a23.826,23.826,0,0,1,3.434-1.99c-5.929,2.8-6.377,2.8-11.128,4.919,5.074-1.247,12.5-3.616,12.039-2.369C152.029,42.632,156.248,40.138,151.469,40.923Z" transform="translate(45.73 7.338)" fill="#bcbcbc"/>
  <path id="Path_336" data-name="Path 336" d="M123.515,45.47a96.7,96.7,0,0,0-11.675,4.2c1.065.112,3,.112,8.564-2.551l-1.64,1.738C124.258,47.082,116.269,48.567,123.515,45.47Z" transform="translate(37.291 8.247)" fill="#bcbcbc"/>
  <path id="Path_337" data-name="Path 337" d="M169.257,37.39l-2.621.308c-2.8,1.177-6.125,2.13-9.068,3.2a32.587,32.587,0,0,0-7.008,3.21c1.738-.575,3.56-1.205,5.382-1.85s3.616-1.317,5.34-1.878C164.716,39.212,167.659,38.119,169.257,37.39Z" transform="translate(50.511 15.008)" fill="#bcbcbc"/>
  <path id="Path_338" data-name="Path 338" d="M136.775,41.312l.35-1.4c-5.845,1.934.561.238-1.4,1.275a23.069,23.069,0,0,0-5.354,1.92C136.859,40.415,131.155,43.82,136.775,41.312Z" transform="translate(43.709 16.02)" fill="#bcbcbc"/>
  <path id="Path_339" data-name="Path 339" d="M149.058,36.089l7.358-2.929-6.307.575C141.419,37.042,149.941,34.618,149.058,36.089Z" transform="translate(49.103 13.309)" fill="#bcbcbc"/>
  <path id="Path_340" data-name="Path 340" d="M155,35.15h.911l10.89-4.99C160.214,32.823,159.765,32.823,155,35.15Z" transform="translate(52.12 12.105)" fill="#bcbcbc"/>
  <path id="Path_341" data-name="Path 341" d="M256.868,24.293c1.289-.6-5.606-.967-2.621-.491C252.957,24.307,262.1,24.6,256.868,24.293Z" transform="translate(86.099 9.464)" fill="#bcbcbc"/>
  <path id="Path_342" data-name="Path 342" d="M235.5,18.562c1.7,0,5.27-.28,9.04-.7s7.709-1,10.119-1.261C248.928,17.161,234.632,17.861,235.5,18.562Z" transform="translate(79.628 6.659)" fill="#bcbcbc"/>
  <path id="Path_343" data-name="Path 343" d="M251.122,16.47l-1.962.224C250.043,16.624,250.674,16.554,251.122,16.47Z" transform="translate(84.668 6.607)" fill="#bcbcbc"/>
  <path id="Path_344" data-name="Path 344" d="M395.38,21.94a11.59,11.59,0,0,0,1.486.126Z" transform="translate(135.039 8.804)" fill="#bcbcbc"/>
  <path id="Path_345" data-name="Path 345" d="M395.04,21.911c-3.238-.673-9.811-1.331-10.96-.925,5.158.519,9.741,1,15.838,1.4C397.661,22.023,394.942,21.252,395.04,21.911Z" transform="translate(130.711 8.37)" fill="#bcbcbc"/>
  <path id="Path_346" data-name="Path 346" d="M426.247,28.852c-2.467-.252-5.69-1.233-4.99-.519C422.533,28.894,427.747,29.595,426.247,28.852Z" transform="translate(143.792 11.268)" fill="#bcbcbc"/>
  <path id="Path_347" data-name="Path 347" d="M450.049,151.57c-4.387.8-6.882,1.654-5.522,2.13C449.376,152.467,446.615,152.677,450.049,151.57Z" transform="translate(147.182 27.744)" fill="#bcbcbc"/>
  <path id="Path_348" data-name="Path 348" d="M440.692,154.268l-.673-.238-3,.126Z" transform="translate(145.508 28.409)" fill="#bcbcbc"/>
  <path id="Path_349" data-name="Path 349" d="M419.152,158.965a7.077,7.077,0,0,1,1.724-.785C419.222,158.7,417.82,159.175,419.152,158.965Z" transform="translate(143.019 29.105)" fill="#bcbcbc"/>
  <path id="Path_350" data-name="Path 350" d="M421.067,158l-.827.266Z" transform="translate(143.623 29.138)" fill="#bcbcbc"/>
  <path id="Path_351" data-name="Path 351" d="M422.862,157.951l.238-.491c-.476.182-1.4.463-2.27.743A4.457,4.457,0,0,1,422.862,157.951Z" transform="translate(143.779 28.983)" fill="#bcbcbc"/>
  <path id="Path_352" data-name="Path 352" d="M412.6,160.778l5.985-.266c5.76-2.046-6.882,1.093-1.4-1.612Z" transform="translate(140.775 29.115)" fill="#bcbcbc"/>
  <path id="Path_353" data-name="Path 353" d="M407.013,164c-5.522.981-12.88,4.779-16.314,4.2-15.193,4.583,4.135,1.4-13.329,6.349,16.819-3.462,7.779-4.779,22.733-7.723C392.759,167.77,404.729,164.953,407.013,164Z" transform="translate(127.98 28.965)" fill="#bcbcbc"/>
  <path id="Path_354" data-name="Path 354" d="M403.171,165.275c.7-.911-6.209.757-8.241,1.766C396.962,166.607,400.634,166.7,403.171,165.275Z" transform="translate(134.674 30.217)" fill="#bcbcbc"/>
  <path id="Path_355" data-name="Path 355" d="M378.047,169.84l-4.835.659-1.121.743Z" transform="translate(128.03 22.262)" fill="#bcbcbc"/>
  <path id="Path_356" data-name="Path 356" d="M364.764,173.4l4.373-1.948C367.708,172.137,360.826,173.791,364.764,173.4Z" transform="translate(123.965 22.908)" fill="#bcbcbc"/>
  <path id="Path_357" data-name="Path 357" d="M347.805,176.55c-4.359.8-7.807,3.616,1.177.967l-2.088.434C347.357,177.531,342.311,178.092,347.805,176.55Z" transform="translate(117.009 24.956)" fill="#bcbcbc"/>
  <path id="Path_358" data-name="Path 358" d="M306.667,188.876c2.985-.631,6.447-1.654,5.746-1.906-2.691.729-5.368,1.514-8.073,2.186Z" transform="translate(103.523 29.141)" fill="#bcbcbc"/>
  <path id="Path_359" data-name="Path 359" d="M307.59,192.137c3,.5,7.639-1.822,13.161-2.677C314.528,190.637,315.172,190.315,307.59,192.137Z" transform="translate(104.519 30.14)" fill="#bcbcbc"/>
  <path id="Path_360" data-name="Path 360" d="M299.13,189.1a37.932,37.932,0,0,1,7.625-1.71C305.619,186.96,300.055,188.278,299.13,189.1Z" transform="translate(101.744 29.277)" fill="#bcbcbc"/>
  <path id="Path_361" data-name="Path 361" d="M294.656,191.782c-2.8,0,.462-.743-1.612-.673a64.626,64.626,0,0,0-14.955,3.083c1.6.21,3.9,1.121,1.64,2.144,9.1-2.172,13.343-5.186,18.122-4.429l7.218-3.588C297.712,189.525,299.758,190.927,294.656,191.782Z" transform="translate(94.072 29.683)" fill="#bcbcbc"/>
  <path id="Path_362" data-name="Path 362" d="M306.579,190.73l-5.046.364c1.107.434-2.579,1.4-5.144,2.1C297.974,194.374,303.79,191.4,306.579,190.73Z" transform="translate(100.742 30.65)" fill="#bcbcbc"/>
  <path id="Path_363" data-name="Path 363" d="M256.708,197.64c-3.462.673-7.008,1.149-10.428,1.7L249.7,199C252.04,198.593,254.381,198.145,256.708,197.64Z" transform="translate(83.512 33.425)" fill="#bcbcbc"/>
  <path id="Path_364" data-name="Path 364" d="M250.4,198.062l-.322-.392-7.919,1.738Z" transform="translate(83.28 33.437)" fill="#bcbcbc"/>
  <path id="Path_365" data-name="Path 365" d="M240.17,198.871l1.247-.084,6.125-1.107Z" transform="translate(82.612 33.441)" fill="#bcbcbc"/>
  <path id="Path_366" data-name="Path 366" d="M225.41,199.959l1.976.449c2.635-.406,8.017-.182,7.442-.967a36.987,36.987,0,0,1-9.418.519Z" transform="translate(76.356 34.148)" fill="#bcbcbc"/>
  <path id="Path_367" data-name="Path 367" d="M173.844,211.333c1.99-.266.841-.715-.294-1.163l-3.21.827a14.016,14.016,0,0,1,3.5.336Z" transform="translate(57.488 38.457)" fill="#bcbcbc"/>
  <path id="Path_368" data-name="Path 368" d="M165.987,208.85l-8.157.21a74.862,74.862,0,0,0,9.811.855l3.882.112,2.271.126,2.8.1a22.8,22.8,0,0,0-2.8-.294c-1-.1-2.046-.168-3.14-.238a51.754,51.754,0,0,1-6.573-.7Z" transform="translate(53.004 37.927)" fill="#bcbcbc"/>
  <path id="Path_369" data-name="Path 369" d="M115.3,138.855c.1,1.065,1.219-.392-2.369,4.513a105.735,105.735,0,0,1,7.779-9.11c2.8-2.8,5.606-5.676,8.872-9.026-1.4.771,2.8-4.737.477-2.06l-7.008,7.667.715-1.472a17.365,17.365,0,0,0-4.2,4.471A27.065,27.065,0,0,1,115.3,138.855Z" transform="translate(37.61 20.586)" fill="#bcbcbc"/>
  <path id="Path_370" data-name="Path 370" d="M373.385,3.34c-.939.392.294.715,1.514,1.023,3.013-.182,2.341-.406,1.051-.659S372.782,3.4,373.385,3.34Z" transform="translate(127.277 1.335)" fill="#bcbcbc"/>
</svg>
