<svg xmlns="http://www.w3.org/2000/svg" xmlns:xlink="http://www.w3.org/1999/xlink" width="69" height="67" viewBox="0 0 69 67">
  <defs>
    <filter id="Ellipse_7" x="0" y="0" width="69" height="67" filterUnits="userSpaceOnUse">
      <feOffset dy="3" input="SourceAlpha"/>
      <feGaussianBlur stdDeviation="3" result="blur"/>
      <feFlood flood-opacity="0.161"/>
      <feComposite operator="in" in2="blur"/>
      <feComposite in="SourceGraphic"/>
    </filter>
  </defs>
  <g id="Group_75" data-name="Group 75" transform="translate(-122.33 -494.864)">
    <g transform="matrix(1, 0, 0, 1, 122.33, 494.86)" filter="url(#Ellipse_7)">
      <ellipse id="Ellipse_7-2" data-name="Ellipse 7" cx="25.5" cy="24.5" rx="25.5" ry="24.5" transform="translate(9 6)" fill="#06ac92"/>
    </g>
    <path id="Icon_awesome-check-circle" data-name="Icon awesome-check-circle" d="M38.01,19.286A18.724,18.724,0,1,1,19.286.563,18.724,18.724,0,0,1,38.01,19.286ZM17.121,29.2,31.013,15.309a1.208,1.208,0,0,0,0-1.708L29.3,11.892a1.208,1.208,0,0,0-1.708,0L16.266,23.221l-5.289-5.289a1.208,1.208,0,0,0-1.708,0L7.56,19.64a1.208,1.208,0,0,0,0,1.708L15.412,29.2a1.208,1.208,0,0,0,1.708,0Z" transform="translate(138.043 506.078)" fill="#e8ede9"/>
  </g>
</svg>
