<svg id="Capa_1" data-name="Capa 1" xmlns="http://www.w3.org/2000/svg" viewBox="0 0 174.24 174.24"><defs><style>.cls-1{fill:#fff;}</style></defs><path class="cls-1" d="M146.54,1.05a3.6,3.6,0,0,0-5.08,0l-51.8,51.8a3.62,3.62,0,0,1-5.08,0L32.78,1.05a3.6,3.6,0,0,0-5.08,0L1.05,27.7a3.6,3.6,0,0,0,0,5.08l51.8,51.8a3.62,3.62,0,0,1,0,5.08l-51.8,51.8a3.6,3.6,0,0,0,0,5.08L27.7,173.19a3.6,3.6,0,0,0,5.08,0l51.8-51.8a3.6,3.6,0,0,1,5.08,0l51.8,51.8a3.6,3.6,0,0,0,5.08,0l26.65-26.65a3.6,3.6,0,0,0,0-5.08l-51.8-51.8a3.6,3.6,0,0,1,0-5.08l51.8-51.8a3.6,3.6,0,0,0,0-5.08Z" transform="translate(0 0)"/></svg>