<svg id="Layer_1" data-name="Layer 1" xmlns="http://www.w3.org/2000/svg" viewBox="0 0 84.3 84.3"><defs><style>.cls-1{fill:#fff;}</style></defs><path id="Icon_awesome-info-circle" data-name="Icon awesome-info-circle" class="cls-1" d="M42.15,0A42.15,42.15,0,1,0,84.3,42.15,42.15,42.15,0,0,0,42.15,0Zm0,18.7A7.14,7.14,0,1,1,35,25.84h0a7.13,7.13,0,0,1,7.13-7.14h0Zm9.52,43.17a2,2,0,0,1-2,2h-15a2,2,0,0,1-2-2V57.78a2,2,0,0,1,2-2h2V44.87h-2a2,2,0,0,1-2-2V38.75a2,2,0,0,1,2-2H45.55a2,2,0,0,1,2,2v17h2a2,2,0,0,1,2,2Z" transform="translate(0)"/></svg>