<svg id="logo-kledingbanken" xmlns="http://www.w3.org/2000/svg" width="223.379" height="115.364" viewBox="0 0 223.379 115.364">
  <g id="Group_1" data-name="Group 1" transform="translate(0 24.537)">
    <path id="Path_2" data-name="Path 2" d="M44.834,162.475H29.654l-16.2-28.806-1.781,3.081v25.7H0V86.8H11.675v27.336L27.732,86.8H42.12L21.484,120.977Z" transform="translate(0 -86.8)" fill="#0c0c49"/>
  </g>
  <path id="Path_3" data-name="Path 3" d="M486.514,103.573a7.246,7.246,0,0,1-1.753,5,7.7,7.7,0,0,1-6.049,2.29H469.1V85h7.6c5.908,0,8.876,2.318,8.876,6.982a6.438,6.438,0,0,1-.9,3.279,4.142,4.142,0,0,1-2.318,1.951,5.269,5.269,0,0,1,2.883,2.064A7.278,7.278,0,0,1,486.514,103.573ZM480.351,92.35a2.389,2.389,0,0,0-.82-1.866,4.06,4.06,0,0,0-2.77-.848h-2.4v5.71h2.431C479.192,95.375,480.351,94.357,480.351,92.35Zm.989,10.8q0-3.138-3.9-3.138h-3.053v5.908h3.392C480.153,105.919,481.34,105.014,481.34,103.148Z" transform="translate(-336.492 -60.972)" fill="#840606"/>
  <path id="Path_4" data-name="Path 4" d="M550.352,107.853h-5.6l-2.431-5.88h-7.1l-2.431,5.88h-5.6L538.734,80.8Zm-9.611-10.064-2.148-4.777-1.951,4.777Z" transform="translate(-378.168 -57.959)" fill="#840606"/>
  <path id="Path_5" data-name="Path 5" d="M632.484,108.494,617.615,93.4v14.474H612.3V81.3l14.9,15.011v-14.3h5.286Z" transform="translate(-439.211 -58.318)" fill="#840606"/>
  <path id="Path_6" data-name="Path 6" d="M709.1,109.466h-6.869l-7.322-9.837-.82,1.046v8.792H688.8V83.6h5.286v9.357l7.265-9.357h6.5l-9.329,11.675Z" transform="translate(-494.085 -59.967)" fill="#840606"/>
  <path id="Path_7" data-name="Path 7" d="M176.938,161.471H165.8V85.4h11.138Z" transform="translate(-118.931 -61.259)" fill="#0c0c49"/>
  <path id="Path_8" data-name="Path 8" d="M244.381,257.955H221.173a6.76,6.76,0,0,0,3.223,5.371,9.75,9.75,0,0,0,5.428,1.47,12.626,12.626,0,0,0,9.527-3.76l4.777,6.3a21.59,21.59,0,0,1-15.746,5.371c-5.2,0-9.385-1.442-12.608-4.3-3.449-3.053-5.173-7.152-5.173-12.353q0-7.59,4.834-12.269a17.022,17.022,0,0,1,12.41-4.693,15.161,15.161,0,0,1,12.042,5.2Q244.381,249.517,244.381,257.955Zm-11.392-5.88a8.461,8.461,0,0,0-2.064-3.958,5.8,5.8,0,0,0-4.24-1.809,4.673,4.673,0,0,0-3.675,1.64,7.228,7.228,0,0,0-1.753,4.127Z" transform="translate(-151.066 -171.51)" fill="#0c0c49"/>
  <path id="Path_9" data-name="Path 9" d="M370.986,161.471h-10.94v-2.488a11.077,11.077,0,0,1-8.594,3.421c-5.2,0-9.159-1.866-11.929-5.625a16.928,16.928,0,0,1-3.223-10.262q0-9.456,5.088-13.88a14.6,14.6,0,0,1,9.866-3.364c3.845,0,6.7,1.1,8.594,3.364V85.4h11.138Zm-10.714-16.113a8.4,8.4,0,0,0-1.64-5.371,5.65,5.65,0,0,0-4.664-2.007,5.218,5.218,0,0,0-4.551,2.29,9.659,9.659,0,0,0-1.611,5.71,8.543,8.543,0,0,0,1.668,5.456,5.556,5.556,0,0,0,4.636,2.12,5.447,5.447,0,0,0,4.693-2.346A10.418,10.418,0,0,0,360.272,145.358Z" transform="translate(-241.232 -61.259)" fill="#0c0c49"/>
  <path id="Path_10" data-name="Path 10" d="M480.238,274.663H469.1V243.2h11.138Z" transform="translate(-336.492 -174.451)" fill="#0c0c49"/>
  <path id="Path_11" data-name="Path 11" d="M548.963,272.87H537.825V254.891c0-3.7-1.442-5.569-4.353-5.569q-4.834,0-4.834,5.512V272.87H517.5V241.407h11.138v2.488a9.585,9.585,0,0,1,3.618-2.233,13.313,13.313,0,0,1,4.891-.961c3.534,0,6.332.9,8.4,2.742,2.29,2.064,3.42,5.06,3.42,8.989Z" transform="translate(-371.21 -172.657)" fill="#0c0c49"/>
  <path id="Path_12" data-name="Path 12" d="M11.675,279.809l186.432-.17c2.629,0,4.438-.933,5.371-2.827.678-1.329.933-3.562.792-6.643a11.313,11.313,0,0,1-8.254,3.562q-8.523,0-12.551-5.569c-2.2-2.94-3.279-6.926-3.279-11.929a16.273,16.273,0,0,1,3.477-10.6c2.77-3.364,6.728-5.032,11.873-5.032a11.125,11.125,0,0,1,8.17,3.279v-2.544h11.138V269.83c0,5.456-.678,9.413-2.007,11.873q-3.265,6.233-12.947,6.247H0Zm192.453-23.124a8.232,8.232,0,0,0-1.64-5.371,5.65,5.65,0,0,0-4.664-2.007,5.218,5.218,0,0,0-4.551,2.29,9.659,9.659,0,0,0-1.611,5.71,8.543,8.543,0,0,0,1.668,5.456,5.556,5.556,0,0,0,4.636,2.12,5.481,5.481,0,0,0,4.693-2.346A10.193,10.193,0,0,0,204.128,256.685Z" transform="translate(0 -172.586)" fill="#0c0c49"/>
  <path id="Path_13" data-name="Path 13" d="M477.4,197.991h-8.2V183.8h3.166v11.505H477.4Z" transform="translate(-336.563 -131.842)" fill="#4d4dff"/>
  <path id="Path_14" data-name="Path 14" d="M507.666,197.991H504.5V183.8h3.166Z" transform="translate(-361.885 -131.842)" fill="#4d4dff"/>
  <path id="Path_15" data-name="Path 15" d="M536.219,196.628h-3.194V189l-3.873,4.24-3.986-4.269v7.661H522V181.957l7.208,7.435,7.011-7.491Z" transform="translate(-374.438 -130.479)" fill="#4d4dff"/>
  <path id="Path_16" data-name="Path 16" d="M589.059,194.077a3.686,3.686,0,0,1-1.046,2.742,4.848,4.848,0,0,1-3.647,1.272H578.6V183.9h4.579q5.343,0,5.343,3.816a3.255,3.255,0,0,1-.565,1.809,2.408,2.408,0,0,1-1.413,1.074,3.05,3.05,0,0,1,1.724,1.131A3.572,3.572,0,0,1,589.059,194.077Zm-3.7-6.163a1.343,1.343,0,0,0-.481-1.018,2.6,2.6,0,0,0-1.668-.481h-1.442v3.166h1.47C584.649,189.582,585.356,189.017,585.356,187.914Zm.594,5.936c0-1.159-.791-1.724-2.346-1.724h-1.837v3.251H583.8C585.243,195.377,585.95,194.868,585.95,193.851Z" transform="translate(-415.037 -131.914)" fill="#4d4dff"/>
  <path id="Path_17" data-name="Path 17" d="M633.234,193.081a5.761,5.761,0,0,1-1.3,3.958,5.47,5.47,0,0,1-4.41,1.724,5.25,5.25,0,0,1-5.823-5.71V184.6h3.166v8.2a3.707,3.707,0,0,0,.622,2.4,2.52,2.52,0,0,0,2.064.735,2.32,2.32,0,0,0,1.951-.735,4.057,4.057,0,0,0,.565-2.4v-8.2h3.194v8.481Z" transform="translate(-445.954 -132.416)" fill="#4d4dff"/>
  <path id="Path_18" data-name="Path 18" d="M680.362,197.991h-4.014l-4.382-6.643v6.643H668.8V183.8h4.749a6.209,6.209,0,0,1,3.731,1.018,3.739,3.739,0,0,1,1.5,3.166,4.057,4.057,0,0,1-.9,2.685,3.571,3.571,0,0,1-2.035,1.187Zm-4.806-9.922c0-1.1-.707-1.668-2.148-1.668h-1.442v3.59h1.47C674.849,189.991,675.556,189.341,675.556,188.069Z" transform="translate(-479.739 -131.842)" fill="#4d4dff"/>
  <path id="Path_19" data-name="Path 19" d="M723.947,190.622a7.271,7.271,0,0,1-1.922,5.23,6.479,6.479,0,0,1-4.947,2.007,7.292,7.292,0,0,1-5.314-2.035,7.655,7.655,0,0,1,.028-10.488,7.471,7.471,0,0,1,5.428-2.035,8.154,8.154,0,0,1,5.371,1.894l-1.781,2.4a5.075,5.075,0,0,0-3.731-1.526,3.97,3.97,0,0,0-3.025,1.272,4.515,4.515,0,0,0-1.187,3.194,4.562,4.562,0,0,0,1.272,3.364,4.2,4.2,0,0,0,3.11,1.244A3.382,3.382,0,0,0,720.7,193h-3.732v-2.4h6.982Z" transform="translate(-509.077 -131.484)" fill="#4d4dff"/>
  <path id="Path_20" data-name="Path 20" d="M769.111,382.855a4.156,4.156,0,1,1-4.156-4.155A4.162,4.162,0,0,1,769.111,382.855Z" transform="translate(-545.732 -271.647)" fill="#840606"/>
  <path id="Path_21" data-name="Path 21" d="M211.1,0l-9.753,9.357L192.7,0,156.8,11.307l2.544,9.555H173.62V64.339h54.219V20.862h14.389l3.392-9.329Z" transform="translate(-112.475)" fill="#ed9906"/>
</svg>
