<svg xmlns="http://www.w3.org/2000/svg" viewBox="0 0 246.88 188.41"><defs><style>.cls-1{isolation:isolate;}.cls-2{opacity:0.75;mix-blend-mode:multiply;}.cls-3{fill:#06ac92;}.cls-4{fill:#fff;}.cls-5,.cls-6,.cls-7,.cls-9{fill:none;stroke-miterlimit:10;stroke-width:8px;}.cls-5,.cls-7{stroke:#06ac92;}.cls-6,.cls-9{stroke:#3bdbc2;}.cls-7,.cls-9{stroke-dasharray:41.44 11.4;}.cls-8{fill:#3bdbc2;}</style></defs><g class="cls-1"><g id="Layer_1" data-name="Layer 1"><g class="cls-2"><path class="cls-3" d="M205.88,243.3l4.47,11.34,4.53-11.34h5.25l-7.94,18.63h-3.77L200.6,243.3Z" transform="translate(-127.92 -142.74)"/><path class="cls-3" d="M238.17,259.58a11.12,11.12,0,0,1-14.69,0,9.73,9.73,0,0,1,0-13.94,11.15,11.15,0,0,1,14.69,0,9.73,9.73,0,0,1,0,13.94Zm-11.12-10.53a5.14,5.14,0,0,0-1.48,3.66,4.78,4.78,0,0,0,1.48,3.47,5.34,5.34,0,0,0,3.78,1.48,5.08,5.08,0,0,0,5.25-5,5,5,0,0,0-1.51-3.58,5.56,5.56,0,0,0-3.74-1.48A5.4,5.4,0,0,0,227.05,249.05Z" transform="translate(-127.92 -142.74)"/><path class="cls-3" d="M249,243.3v14.52h5.81v4.11H244.18V243.3Z" transform="translate(-127.92 -142.74)"/><path class="cls-3" d="M265.41,251.37H275c0,3.69-.76,6.32-3,8.38a9.09,9.09,0,0,1-6.57,2.35,9.61,9.61,0,0,1-7.15-2.77,9.4,9.4,0,0,1-2.68-6.73,9.7,9.7,0,0,1,2.79-7,10.83,10.83,0,0,1,12.27-1.48A9.11,9.11,0,0,1,274,248l-4.61,1.9a4.49,4.49,0,0,0-1.34-1.87,3.9,3.9,0,0,0-2.6-.92,4.53,4.53,0,0,0-3.18,1.28,6.3,6.3,0,0,0-1.62,4.28,5.81,5.81,0,0,0,1.48,4,4.4,4.4,0,0,0,3.41,1.43,4,4,0,0,0,2.68-.87,3.29,3.29,0,0,0,1.15-2.07h-4Z" transform="translate(-127.92 -142.74)"/><path class="cls-3" d="M293.76,243.3v12.82a5.41,5.41,0,0,1-1.59,4.47,6,6,0,0,1-4.55,1.76,5,5,0,0,1-2.94-.84,6.57,6.57,0,0,1-1.84-1.9l3.16-3.24a2.54,2.54,0,0,0,.67,1.48,1.66,1.66,0,0,0,.92.34,1.39,1.39,0,0,0,.84-.31,2.86,2.86,0,0,0,.5-1.87V243.3Z" transform="translate(-127.92 -142.74)"/><path class="cls-3" d="M308.26,247.4H302.5v3.11H308v4.1H302.5v3.21h5.76v4.11H297.67V243.3h10.59Z" transform="translate(-127.92 -142.74)"/></g><path class="cls-4" d="M202.88,240.3l4.47,11.34,4.53-11.34h5.25l-7.94,18.63h-3.77L197.6,240.3Z" transform="translate(-127.92 -142.74)"/><path class="cls-4" d="M235.17,256.58a11.12,11.12,0,0,1-14.69,0,9.73,9.73,0,0,1,0-13.94,11.15,11.15,0,0,1,14.69,0,9.73,9.73,0,0,1,0,13.94Zm-11.12-10.53a5.14,5.14,0,0,0-1.48,3.66,4.78,4.78,0,0,0,1.48,3.47,5.34,5.34,0,0,0,3.78,1.48,5.08,5.08,0,0,0,5.25-5,5,5,0,0,0-1.51-3.58,5.56,5.56,0,0,0-3.74-1.48A5.4,5.4,0,0,0,224.05,246.05Z" transform="translate(-127.92 -142.74)"/><path class="cls-4" d="M246,240.3v14.52h5.81v4.11H241.18V240.3Z" transform="translate(-127.92 -142.74)"/><path class="cls-4" d="M262.41,248.37H272c0,3.69-.76,6.32-3,8.38a9.09,9.09,0,0,1-6.57,2.35,9.61,9.61,0,0,1-7.15-2.77,9.4,9.4,0,0,1-2.68-6.73,9.7,9.7,0,0,1,2.79-7,10.83,10.83,0,0,1,12.27-1.48A9.11,9.11,0,0,1,271,245l-4.61,1.9a4.49,4.49,0,0,0-1.34-1.87,3.9,3.9,0,0,0-2.6-.92,4.53,4.53,0,0,0-3.18,1.28,6.3,6.3,0,0,0-1.62,4.28,5.81,5.81,0,0,0,1.48,4,4.4,4.4,0,0,0,3.41,1.43,4,4,0,0,0,2.68-.87,3.29,3.29,0,0,0,1.15-2.07h-4Z" transform="translate(-127.92 -142.74)"/><path class="cls-4" d="M290.76,240.3v12.82a5.41,5.41,0,0,1-1.59,4.47,6,6,0,0,1-4.55,1.76,5,5,0,0,1-2.94-.84,6.57,6.57,0,0,1-1.84-1.9l3.16-3.24a2.54,2.54,0,0,0,.67,1.48,1.66,1.66,0,0,0,.92.34,1.39,1.39,0,0,0,.84-.31,2.86,2.86,0,0,0,.5-1.87V240.3Z" transform="translate(-127.92 -142.74)"/><path class="cls-4" d="M305.26,244.4H299.5v3.11H305v4.1H299.5v3.21h5.76v4.11H294.67V240.3h10.59Z" transform="translate(-127.92 -142.74)"/><g class="cls-2"><path class="cls-3" d="M179.24,284.07l8.46-11h8.54L185.67,285.7l11.53,14h-8.94l-9-11.53v11.53h-6.9V273.09h6.9Z" transform="translate(-127.92 -142.74)"/><path class="cls-3" d="M207.17,273.09v20.75h8.31v5.87H200.27V273.09Z" transform="translate(-127.92 -142.74)"/><path class="cls-3" d="M234.15,279h-8.22v4.43h7.78v5.86h-7.78v4.59h8.22v5.87H219V273.09h15.13Z" transform="translate(-127.92 -142.74)"/><path class="cls-3" d="M238.54,299.71V273.09h9.05c2.68,0,7.15.36,10.58,3.67a13,13,0,0,1,3.71,9.7,12.29,12.29,0,0,1-3.47,9.22,14.5,14.5,0,0,1-10.22,4Zm6.9-5.87h1.4a8,8,0,0,0,5.82-1.91,7.26,7.26,0,0,0,2-5.47,8,8,0,0,0-2.08-5.83,7.76,7.76,0,0,0-5.5-1.67h-1.68Z" transform="translate(-127.92 -142.74)"/><path class="cls-3" d="M273.17,273.09v26.62h-6.9V273.09Z" transform="translate(-127.92 -142.74)"/><path class="cls-3" d="M278.76,299.71V273.09h6.9l12.73,16.28V273.09h6.9v26.62h-6.9l-12.73-16.28v16.28Z" transform="translate(-127.92 -142.74)"/><path class="cls-3" d="M323.65,284.63h13.72c0,5.26-1.07,9-4.27,12a13,13,0,0,1-9.37,3.35A13.78,13.78,0,0,1,313.51,296a13.45,13.45,0,0,1-3.83-9.62,13.86,13.86,0,0,1,4-10,15.45,15.45,0,0,1,17.52-2.12,13.09,13.09,0,0,1,4.75,5.47l-6.59,2.71a6.39,6.39,0,0,0-1.91-2.67,5.59,5.59,0,0,0-3.71-1.32,6.42,6.42,0,0,0-4.55,1.84,9,9,0,0,0-2.32,6.1,8.32,8.32,0,0,0,2.12,5.75,6.32,6.32,0,0,0,4.87,2,5.74,5.74,0,0,0,3.83-1.23,4.74,4.74,0,0,0,1.63-3h-5.66Z" transform="translate(-127.92 -142.74)"/></g><path class="cls-4" d="M176.24,281.07l8.46-11h8.54L182.67,282.7l11.53,14h-8.94l-9-11.53v11.53h-6.9V270.09h6.9Z" transform="translate(-127.92 -142.74)"/><path class="cls-4" d="M204.17,270.09v20.75h8.31v5.87H197.27V270.09Z" transform="translate(-127.92 -142.74)"/><path class="cls-4" d="M231.15,276h-8.22v4.43h7.78v5.86h-7.78v4.59h8.22v5.87H216V270.09h15.13Z" transform="translate(-127.92 -142.74)"/><path class="cls-4" d="M235.54,296.71V270.09h9.05c2.68,0,7.15.36,10.58,3.67a13,13,0,0,1,3.71,9.7,12.29,12.29,0,0,1-3.47,9.22,14.5,14.5,0,0,1-10.22,4Zm6.9-5.87h1.4a8,8,0,0,0,5.82-1.91,7.26,7.26,0,0,0,2-5.47,8,8,0,0,0-2.08-5.83,7.76,7.76,0,0,0-5.5-1.67h-1.68Z" transform="translate(-127.92 -142.74)"/><path class="cls-4" d="M270.17,270.09v26.62h-6.9V270.09Z" transform="translate(-127.92 -142.74)"/><path class="cls-4" d="M275.76,296.71V270.09h6.9l12.73,16.28V270.09h6.9v26.62h-6.9l-12.73-16.28v16.28Z" transform="translate(-127.92 -142.74)"/><path class="cls-4" d="M320.65,281.63h13.72c0,5.26-1.07,9-4.27,12a13,13,0,0,1-9.37,3.35A13.78,13.78,0,0,1,310.51,293a13.45,13.45,0,0,1-3.83-9.62,13.86,13.86,0,0,1,4-10,15.45,15.45,0,0,1,17.52-2.12,13.09,13.09,0,0,1,4.75,5.47l-6.59,2.71a6.39,6.39,0,0,0-1.91-2.67,5.59,5.59,0,0,0-3.71-1.32,6.42,6.42,0,0,0-4.55,1.84,9,9,0,0,0-2.32,6.1,8.32,8.32,0,0,0,2.12,5.75,6.32,6.32,0,0,0,4.87,2,5.74,5.74,0,0,0,3.83-1.23,4.74,4.74,0,0,0,1.63-3h-5.66Z" transform="translate(-127.92 -142.74)"/><g class="cls-2"><path class="cls-5" d="M235.15,165.06c1.59-8.7,9.73-15.32,19.55-15.32,10.95,0,19.83,8.25,19.83,18.42s-8.88,18.41-19.83,18.41h-.44a3,3,0,0,0-3.06,3v6.93" transform="translate(-127.92 -142.74)"/></g><path class="cls-6" d="M232.15,162.06c1.59-8.7,9.73-15.32,19.55-15.32,10.95,0,19.83,8.25,19.83,18.42s-8.88,18.41-19.83,18.41h-.44a3,3,0,0,0-3.06,3v6.93" transform="translate(-127.92 -142.74)"/><g class="cls-2"><polygon class="cls-3" points="110.75 176.99 124.8 188.41 124.8 165.57 110.75 176.99"/><polygon class="cls-3" points="203.72 103.83 198.98 86.36 185.65 104.91 203.72 103.83"/><polygon class="cls-3" points="69.33 86.61 51.25 85.7 64.75 104.12 69.33 86.61"/><path class="cls-7" d="M235.39,202.06l-88.08,63.73c-23.42,16.94-11.43,53.95,17.47,53.95H340.93c28.91,0,40.89-37,17.47-53.95l-88.07-63.73A29.81,29.81,0,0,0,235.39,202.06Z" transform="translate(-127.92 -142.74)"/></g><polygon class="cls-8" points="107.75 173.99 121.8 185.41 121.8 162.57 107.75 173.99"/><polygon class="cls-8" points="200.72 100.83 195.98 83.36 182.65 101.91 200.72 100.83"/><polygon class="cls-8" points="66.33 83.61 48.25 82.7 61.74 101.12 66.33 83.61"/><path class="cls-9" d="M232.39,199.06l-88.08,63.73c-23.42,16.94-11.43,53.95,17.47,53.95H337.93c28.91,0,40.89-37,17.47-53.95l-88.07-63.73A29.81,29.81,0,0,0,232.39,199.06Z" transform="translate(-127.92 -142.74)"/></g></g></svg>